<svg xmlns="http://www.w3.org/2000/svg" xmlns:xlink="http://www.w3.org/1999/xlink"><defs><style>.cls-1{fill:#fff}.cls-2{fill:#01a5cb}.cls-3{fill:#003889}</style></defs><symbol id="logo" viewBox="0 0 75.46 91.34"><path d="M35.4 0h4.89l17 35.85-17.85 18.08h-3.12l-18-18L35.4 0z" id="&#x421;&#x43B;&#x43E;&#x439;_2" data-name="&#x421;&#x43B;&#x43E;&#x439; 2"/><g id="&#x421;&#x43B;&#x43E;&#x439;_7" data-name="&#x421;&#x43B;&#x43E;&#x439; 7"><path class="cls-1" d="M29.8 30.33h15.98v3.99H29.8z"/><path class="cls-1" d="M36.79 2.44h2V54h-2z"/><path class="cls-1" d="M33.77 8.3h8.07v3h-8.07z"/><path class="cls-1" d="M349.5 237.74a.5.5 0 0 1 .33.2.48.48 0 0 1 .08.37l-7.36 44.37a.5.5 0 0 1-.57.42s-.27-.07-.42-.58c-.21-.74 4.35-27 7.46-44.65a.56.56 0 0 1 .48-.13z" transform="translate(-312.19 -234.93)"/><rect class="cls-1" x="353.98" y="237.01" width="1" height="45.98" rx=".5" transform="rotate(-10.25 -1111.42 1882.915)"/><path class="cls-1" transform="rotate(45 476.477 -218.407)" d="M348.74 266.41h.5v18.99h-.5z"/><path class="cls-1" transform="rotate(45 476.187 -232.627)" d="M348.45 254h.5v15.38h-.5z"/><path class="cls-1" transform="rotate(37.45 539.974 -325.732)" d="M349.31 247.36h.5v9.82h-.5z"/><path class="cls-1" transform="rotate(90 311.285 -17.155)" d="M349.67 252.38h.5v8.05h-.5z"/><path class="cls-1" d="M29.63 47.4h16.99v1.92H29.63z"/></g><g id="&#x421;&#x43B;&#x43E;&#x439;_5" data-name="&#x421;&#x43B;&#x43E;&#x439; 5"><path class="cls-2" transform="rotate(-45 -104.845 562.958)" d="M329.54 276.85h10.58v53.45h-10.58z"/><path class="cls-2" transform="rotate(44.68 494.915 -193.67)" d="M359.87 276.92h10.56v53.35h-10.56z"/><path class="cls-3" transform="rotate(-45 -79.37 549.766)" d="M339.76 284.41h41.09v11.94h-41.09z"/><path class="cls-3" transform="rotate(45 467.15 -203.95)" d="M319.07 284.39h41.18v11.94h-41.18z"/></g></symbol></svg>